<svg width="129" height="36" viewBox="0 0 129 36" fill="none" xmlns="http://www.w3.org/2000/svg">
<path d="M1.39119 35C1.03919 35 0.751188 34.888 0.527188 34.664C0.303188 34.408 0.191188 34.12 0.191188 33.8V29.096C0.191188 28.648 0.271188 28.28 0.431188 27.992C0.623188 27.704 0.783188 27.496 0.911188 27.368L16.3672 8.552H1.82319C1.50319 8.552 1.21519 8.44 0.959188 8.216C0.735188 7.992 0.623188 7.704 0.623188 7.352V2.6C0.623188 2.248 0.735188 1.96 0.959188 1.736C1.21519 1.512 1.50319 1.4 1.82319 1.4H26.0152C26.3672 1.4 26.6552 1.512 26.8792 1.736C27.1352 1.96 27.2632 2.248 27.2632 2.6V7.256C27.2632 7.608 27.1992 7.912 27.0712 8.168C26.9752 8.424 26.8312 8.664 26.6392 8.888L11.6152 27.752H26.5912C26.9432 27.752 27.2312 27.88 27.4552 28.136C27.7112 28.36 27.8392 28.648 27.8392 29V33.8C27.8392 34.152 27.7112 34.44 27.4552 34.664C27.2312 34.888 26.9432 35 26.5912 35H1.39119ZM43.8978 35.48C41.2098 35.48 38.9378 35.048 37.0818 34.184C35.2578 33.32 33.8498 32.088 32.8578 30.488C31.8978 28.856 31.3538 26.92 31.2258 24.68C31.1938 24.04 31.1778 23.32 31.1778 22.52C31.1778 21.688 31.1938 20.968 31.2258 20.36C31.3538 18.088 31.9298 16.152 32.9538 14.552C33.9778 12.952 35.4018 11.72 37.2258 10.856C39.0818 9.992 41.3058 9.56 43.8978 9.56C46.5218 9.56 48.7458 9.992 50.5698 10.856C52.4258 11.72 53.8658 12.952 54.8898 14.552C55.9138 16.152 56.4898 18.088 56.6178 20.36C56.6498 20.968 56.6658 21.688 56.6658 22.52C56.6658 23.32 56.6498 24.04 56.6178 24.68C56.4898 26.92 55.9298 28.856 54.9378 30.488C53.9778 32.088 52.5698 33.32 50.7138 34.184C48.8898 35.048 46.6178 35.48 43.8978 35.48ZM43.8978 29.624C45.3378 29.624 46.3778 29.192 47.0178 28.328C47.6898 27.464 48.0738 26.168 48.1698 24.44C48.2018 23.96 48.2178 23.32 48.2178 22.52C48.2178 21.72 48.2018 21.08 48.1698 20.6C48.0738 18.904 47.6898 17.624 47.0178 16.76C46.3778 15.864 45.3378 15.416 43.8978 15.416C42.4898 15.416 41.4498 15.864 40.7778 16.76C40.1058 17.624 39.7378 18.904 39.6738 20.6C39.6418 21.08 39.6258 21.72 39.6258 22.52C39.6258 23.32 39.6418 23.96 39.6738 24.44C39.7378 26.168 40.1058 27.464 40.7778 28.328C41.4498 29.192 42.4898 29.624 43.8978 29.624ZM62.5867 35C62.2347 35 61.9467 34.888 61.7227 34.664C61.4987 34.44 61.3867 34.152 61.3867 33.8V2.12C61.3867 1.768 61.4987 1.48 61.7227 1.256C61.9467 1.032 62.2347 0.919998 62.5867 0.919998H68.2507C68.6027 0.919998 68.8907 1.032 69.1147 1.256C69.3387 1.48 69.4507 1.768 69.4507 2.12V33.8C69.4507 34.152 69.3387 34.44 69.1147 34.664C68.8907 34.888 68.6027 35 68.2507 35H62.5867ZM82.6091 35.48C80.8811 35.48 79.3291 35.16 77.9531 34.52C76.6091 33.848 75.5371 32.952 74.7371 31.832C73.9371 30.712 73.5371 29.448 73.5371 28.04C73.5371 25.768 74.4651 23.976 76.3211 22.664C78.1771 21.32 80.6411 20.408 83.7131 19.928L89.7131 19.016V18.344C89.7131 17.192 89.4731 16.312 88.9931 15.704C88.5131 15.096 87.6331 14.792 86.3531 14.792C85.4571 14.792 84.7211 14.968 84.1451 15.32C83.6011 15.672 83.1691 16.152 82.8491 16.76C82.5611 17.176 82.1611 17.384 81.6491 17.384H76.2731C75.9211 17.384 75.6491 17.288 75.4571 17.096C75.2651 16.872 75.1851 16.616 75.2171 16.328C75.2171 15.752 75.4251 15.096 75.8411 14.36C76.2891 13.592 76.9611 12.84 77.8571 12.104C78.7531 11.368 79.9051 10.76 81.3131 10.28C82.7211 9.8 84.4171 9.56 86.4011 9.56C88.4811 9.56 90.2571 9.8 91.7291 10.28C93.2011 10.76 94.3851 11.432 95.2811 12.296C96.2091 13.16 96.8971 14.184 97.3451 15.368C97.7931 16.52 98.0171 17.8 98.0171 19.208V33.8C98.0171 34.152 97.8891 34.44 97.6331 34.664C97.4091 34.888 97.1371 35 96.8171 35H91.2491C90.8971 35 90.6091 34.888 90.3851 34.664C90.1611 34.44 90.0491 34.152 90.0491 33.8V32.12C89.6331 32.728 89.0731 33.288 88.3691 33.8C87.6651 34.312 86.8331 34.712 85.8731 35C84.9451 35.32 83.8571 35.48 82.6091 35.48ZM84.8651 30.008C85.7931 30.008 86.6251 29.816 87.3611 29.432C88.1291 29.016 88.7211 28.392 89.1371 27.56C89.5851 26.696 89.8091 25.624 89.8091 24.344V23.672L85.7291 24.392C84.2251 24.648 83.1211 25.048 82.4171 25.592C81.7451 26.104 81.4091 26.712 81.4091 27.416C81.4091 27.96 81.5691 28.424 81.8891 28.808C82.2091 29.192 82.6251 29.496 83.1371 29.72C83.6491 29.912 84.2251 30.008 84.8651 30.008ZM104.634 35C104.282 35 103.994 34.888 103.77 34.664C103.546 34.44 103.434 34.152 103.434 33.8V2.12C103.434 1.768 103.546 1.48 103.77 1.256C103.994 1.032 104.282 0.919998 104.634 0.919998H110.202C110.522 0.919998 110.794 1.032 111.018 1.256C111.274 1.48 111.402 1.768 111.402 2.12V18.2L118.074 10.856C118.266 10.632 118.474 10.44 118.698 10.28C118.922 10.12 119.242 10.04 119.658 10.04H126.09C126.378 10.04 126.618 10.152 126.81 10.376C127.034 10.568 127.146 10.808 127.146 11.096C127.146 11.224 127.114 11.368 127.05 11.528C126.986 11.688 126.89 11.816 126.762 11.912L118.122 21.224L127.962 33.176C128.218 33.432 128.346 33.688 128.346 33.944C128.346 34.232 128.234 34.488 128.01 34.712C127.818 34.904 127.562 35 127.242 35H120.666C120.186 35 119.834 34.92 119.61 34.76C119.386 34.568 119.178 34.376 118.986 34.184L111.402 25.064V33.8C111.402 34.152 111.274 34.44 111.018 34.664C110.794 34.888 110.522 35 110.202 35H104.634Z" fill="black"/>
</svg>
